<?xml version="1.0" encoding="utf-8"?>
<svg version="1.1" x="0" y="0" width="256" height="256" viewBox="0, 0, 256, 256" xmlns="http://www.w3.org/2000/svg" xmlns:bx="https://boxy-svg.com">
  <g id="Layer_1">
    <g id="concise">
      <g id="concise-block-b-3">
        <g id="line">
          <path d="M4.356,246.408 L34.499,246.408 L34.499,252.311 L4.356,252.311 L4.356,246.408 z" fill="#5B5B5B" stroke="#5B5B5B" stroke-width="3" stroke-linejoin="round"/>
        </g>
        <g id="line">
          <path d="M14.544,233.549 L121.345,233.549 L121.345,239.452 L14.544,239.452 L14.544,233.549 z" fill="#B2B2B2" stroke="#B2B2B2" stroke-width="3" stroke-linejoin="round"/>
        </g>
        <g id="line">
          <path d="M14.544,221.07 L76.338,221.07 L76.338,226.974 L14.544,226.974 L14.544,221.07 z" fill="#B2B2B2" stroke="#B2B2B2" stroke-width="3" stroke-linejoin="round"/>
        </g>
        <g id="line">
          <path d="M14.544,208.065 L105.475,208.065 L105.475,213.968 L14.544,213.968 L14.544,208.065 z" fill="#B2B2B2" stroke="#B2B2B2" stroke-width="3" stroke-linejoin="round"/>
        </g>
        <g id="line">
          <path d="M4.356,195.423 L71.585,195.423 L71.585,201.324 L4.356,201.324 L4.356,195.423 z" fill="#5B5B5B" stroke="#5B5B5B" stroke-width="3" stroke-linejoin="round"/>
        </g>
      </g>
      <g id="concise-block-b-2">
        <g id="line">
          <path d="M4.356,182.947 L34.499,182.947 L34.499,188.851 L4.356,188.851 L4.356,182.947 z" fill="#5B5B5B" stroke="#5B5B5B" stroke-width="3" stroke-linejoin="round"/>
        </g>
        <g id="line">
          <path d="M14.544,170.088 L121.345,170.088 L121.345,175.991 L14.544,175.991 L14.544,170.088 z" fill="#B2B2B2" stroke="#B2B2B2" stroke-width="3" stroke-linejoin="round"/>
        </g>
        <g id="line">
          <path d="M14.544,157.61 L76.338,157.61 L76.338,163.513 L14.544,163.513 L14.544,157.61 z" fill="#B2B2B2" stroke="#B2B2B2" stroke-width="3" stroke-linejoin="round"/>
        </g>
        <g id="line">
          <path d="M14.544,144.604 L105.475,144.604 L105.475,150.507 L14.544,150.507 L14.544,144.604 z" fill="#B2B2B2" stroke="#B2B2B2" stroke-width="3" stroke-linejoin="round"/>
        </g>
        <g id="line">
          <path d="M4.356,131.962 L71.585,131.962 L71.585,137.863 L4.356,137.863 L4.356,131.962 z" fill="#5B5B5B" stroke="#5B5B5B" stroke-width="3" stroke-linejoin="round"/>
        </g>
      </g>
      <g id="concise-block-b-1">
        <g id="line">
          <path d="M4.356,119.487 L34.499,119.487 L34.499,125.39 L4.356,125.39 L4.356,119.487 z" fill="#5B5B5B" stroke="#5B5B5B" stroke-width="3" stroke-linejoin="round"/>
        </g>
        <g id="line">
          <path d="M14.544,106.627 L121.345,106.627 L121.345,112.531 L14.544,112.531 L14.544,106.627 z" fill="#B2B2B2" stroke="#B2B2B2" stroke-width="3" stroke-linejoin="round"/>
        </g>
        <g id="line">
          <path d="M14.544,94.149 L76.338,94.149 L76.338,100.052 L14.544,100.052 L14.544,94.149 z" fill="#B2B2B2" stroke="#B2B2B2" stroke-width="3" stroke-linejoin="round"/>
        </g>
        <g id="line">
          <path d="M14.544,81.143 L105.475,81.143 L105.475,87.046 L14.544,87.046 L14.544,81.143 z" fill="#B2B2B2" stroke="#B2B2B2" stroke-width="3" stroke-linejoin="round"/>
        </g>
        <g id="line">
          <path d="M4.356,68.502 L71.585,68.502 L71.585,74.403 L4.356,74.403 L4.356,68.502 z" fill="#5B5B5B" stroke="#5B5B5B" stroke-width="3" stroke-linejoin="round"/>
        </g>
      </g>
      <g id="concise-block-a">
        <g id="line">
          <path d="M4.356,56.026 L34.499,56.026 L34.499,61.929 L4.356,61.929 L4.356,56.026 z" fill="#5B5B5B" stroke="#5B5B5B" stroke-width="3" stroke-linejoin="round"/>
        </g>
        <g id="line">
          <path d="M14.544,43.167 L121.345,43.167 L121.345,49.07 L14.544,49.07 L14.544,43.167 z" fill="#B2B2B2" stroke="#B2B2B2" stroke-width="3" stroke-linejoin="round"/>
        </g>
        <g id="line">
          <path d="M14.544,30.688 L76.338,30.688 L76.338,36.591 L14.544,36.591 L14.544,30.688 z" fill="#B2B2B2" stroke="#B2B2B2" stroke-width="3" stroke-linejoin="round"/>
        </g>
        <g id="line">
          <path d="M14.544,17.683 L105.475,17.683 L105.475,23.586 L14.544,23.586 L14.544,17.683 z" fill="#B2B2B2" stroke="#B2B2B2" stroke-width="3" stroke-linejoin="round"/>
        </g>
        <g id="line">
          <path d="M4.356,5.041 L251.61,5.041 L251.61,10.942 L4.356,10.942 L4.356,5.041 z" fill="#5B5B5B" stroke="#5B5B5B" stroke-width="3" stroke-linejoin="round"/>
        </g>
      </g>
    </g>
    <g id="verbose">
      <g id="verbose-block-4">
        <g id="line">
          <path d="M4.356,246.408 L34.499,246.408 L34.499,252.311 L4.356,252.311 L4.356,246.408 z" fill="#5B5B5B" stroke="#5B5B5B" stroke-width="3" stroke-linejoin="round"/>
        </g>
        <g id="line">
          <path d="M14.544,233.549 L121.345,233.549 L121.345,239.452 L14.544,239.452 L14.544,233.549 z" fill="#B2B2B2" stroke="#B2B2B2" stroke-width="3" stroke-linejoin="round"/>
        </g>
        <g id="line">
          <path d="M14.544,221.07 L76.338,221.07 L76.338,226.974 L14.544,226.974 L14.544,221.07 z" fill="#B2B2B2" stroke="#B2B2B2" stroke-width="3" stroke-linejoin="round"/>
        </g>
        <g id="line">
          <path d="M14.544,208.065 L105.475,208.065 L105.475,213.968 L14.544,213.968 L14.544,208.065 z" fill="#B2B2B2" stroke="#B2B2B2" stroke-width="3" stroke-linejoin="round"/>
        </g>
        <g id="line">
          <path d="M4.356,195.423 L251.61,195.423 L251.61,201.324 L4.356,201.324 L4.356,195.423 z" fill="#5B5B5B" stroke="#5B5B5B" stroke-width="3" stroke-linejoin="round"/>
        </g>
        <g transform="matrix(1, 0, 0, 1, 0, 63)" bx:origin="0.5 0.555538">
          <line style="stroke: rgb(0, 0, 0); stroke-linecap: round; stroke-width: 7px;" x1="200" y1="148" x2="224.749" y2="123.251"/>
          <line style="stroke: rgb(0, 0, 0); stroke-linecap: round; stroke-width: 7px;" x1="224.7" y1="148" x2="199.951" y2="123.251"/>
        </g>
      </g>
      <g id="verbose-block-3">
        <g id="line">
          <path d="M4.356,182.947 L34.499,182.947 L34.499,188.851 L4.356,188.851 L4.356,182.947 z" fill="#5B5B5B" stroke="#5B5B5B" stroke-width="3" stroke-linejoin="round"/>
        </g>
        <g id="line">
          <path d="M14.544,170.088 L121.345,170.088 L121.345,175.991 L14.544,175.991 L14.544,170.088 z" fill="#B2B2B2" stroke="#B2B2B2" stroke-width="3" stroke-linejoin="round"/>
        </g>
        <g id="line">
          <path d="M14.544,157.61 L76.338,157.61 L76.338,163.513 L14.544,163.513 L14.544,157.61 z" fill="#B2B2B2" stroke="#B2B2B2" stroke-width="3" stroke-linejoin="round"/>
        </g>
        <g id="line">
          <path d="M14.544,144.604 L105.475,144.604 L105.475,150.507 L14.544,150.507 L14.544,144.604 z" fill="#B2B2B2" stroke="#B2B2B2" stroke-width="3" stroke-linejoin="round"/>
        </g>
        <g id="line">
          <path d="M4.356,131.962 L251.61,131.962 L251.61,137.863 L4.356,137.863 L4.356,131.962 z" fill="#5B5B5B" stroke="#5B5B5B" stroke-width="3" stroke-linejoin="round"/>
        </g>
        <g transform="matrix(1, 0, 0, 1, 0, 63)" bx:origin="0.5 0.555538">
          <line style="stroke: rgb(0, 0, 0); stroke-linecap: round; stroke-width: 7px;" x1="200" y1="84" x2="224.749" y2="59.251"/>
          <line style="stroke: rgb(0, 0, 0); stroke-linecap: round; stroke-width: 7px;" x1="224.7" y1="84" x2="199.951" y2="59.251"/>
        </g>
      </g>
      <g id="verbose-block-2">
        <g id="line">
          <path d="M4.356,119.487 L34.499,119.487 L34.499,125.39 L4.356,125.39 L4.356,119.487 z" fill="#5B5B5B" stroke="#5B5B5B" stroke-width="3" stroke-linejoin="round"/>
        </g>
        <g id="line">
          <path d="M14.544,106.627 L121.345,106.627 L121.345,112.531 L14.544,112.531 L14.544,106.627 z" fill="#B2B2B2" stroke="#B2B2B2" stroke-width="3" stroke-linejoin="round"/>
        </g>
        <g id="line">
          <path d="M14.544,94.149 L76.338,94.149 L76.338,100.052 L14.544,100.052 L14.544,94.149 z" fill="#B2B2B2" stroke="#B2B2B2" stroke-width="3" stroke-linejoin="round"/>
        </g>
        <g id="line">
          <path d="M14.544,81.143 L105.475,81.143 L105.475,87.047 L14.544,87.047 L14.544,81.143 z" fill="#B2B2B2" stroke="#B2B2B2" stroke-width="3" stroke-linejoin="round"/>
        </g>
        <g id="line">
          <path d="M4.356,68.502 L251.61,68.502 L251.61,74.403 L4.356,74.403 L4.356,68.502 z" fill="#5B5B5B" stroke="#5B5B5B" stroke-width="3" stroke-linejoin="round"/>
        </g>
        <g>
          <line style="stroke: rgb(0, 0, 0); stroke-linecap: round; stroke-width: 7px;" x1="200" y1="84" x2="224.749" y2="59.251"/>
          <line style="stroke: rgb(0, 0, 0); stroke-linecap: round; stroke-width: 7px;" x1="224.7" y1="84" x2="199.951" y2="59.251"/>
        </g>
      </g>
      <g id="verbose-block-1">
        <g id="line">
          <path d="M4.356,56.026 L34.499,56.026 L34.499,61.929 L4.356,61.929 L4.356,56.026 z" fill="#5B5B5B" stroke="#5B5B5B" stroke-width="3" stroke-linejoin="round"/>
        </g>
        <g id="line">
          <path d="M14.544,43.167 L121.345,43.167 L121.345,49.07 L14.544,49.07 L14.544,43.167 z" fill="#B2B2B2" stroke="#B2B2B2" stroke-width="3" stroke-linejoin="round"/>
        </g>
        <g id="line">
          <path d="M14.544,30.688 L76.338,30.688 L76.338,36.591 L14.544,36.591 L14.544,30.688 z" fill="#B2B2B2" stroke="#B2B2B2" stroke-width="3" stroke-linejoin="round"/>
        </g>
        <g id="line">
          <path d="M14.544,17.683 L105.475,17.683 L105.475,23.586 L14.544,23.586 L14.544,17.683 z" fill="#B2B2B2" stroke="#B2B2B2" stroke-width="3" stroke-linejoin="round"/>
        </g>
        <g id="line"/>
      </g>
    </g>
  </g>
</svg>