<?xml version="1.0" encoding="utf-8"?>
<svg version="1.1" x="0" y="0" width="256" height="256" viewBox="0, 0, 256, 256" xmlns="http://www.w3.org/2000/svg">
  <g id="Layer_1">
    <g id="left-window">
      <g>
        <path d="M22.46,5.487 L125.745,5.487 C134.095,5.487 140.865,10.665 140.865,17.051 L140.865,185.866 C140.865,192.252 134.095,197.43 125.745,197.43 L22.46,197.43 C14.11,197.43 7.34,192.252 7.34,185.866 L7.34,17.051 C7.34,10.665 14.11,5.487 22.46,5.487 z" fill="#868080"/>
        <path d="M22.46,5.487 L125.745,5.487 C134.095,5.487 140.865,10.665 140.865,17.051 L140.865,185.866 C140.865,192.252 134.095,197.43 125.745,197.43 L22.46,197.43 C14.11,197.43 7.34,192.252 7.34,185.866 L7.34,17.051 C7.34,10.665 14.11,5.487 22.46,5.487 z" fill-opacity="0" stroke="#000000" stroke-width="4"/>
      </g>
      <g>
        <path d="M125.745,5.487 C134.096,5.487 140.865,10.665 140.865,17.052 L140.865,40.1 L7.34,40.1 L7.34,17.051 C7.34,10.665 14.11,5.487 22.46,5.487 L125.745,5.487 z" fill="#FFFFFF"/>
        <path d="M125.745,5.487 C134.096,5.487 140.865,10.665 140.865,17.052 L140.865,40.1 L7.34,40.1 L7.34,17.051 C7.34,10.665 14.11,5.487 22.46,5.487 L125.745,5.487 z" fill-opacity="0" stroke="#000000" stroke-width="4"/>
        <path d="M 20.352 14.656 L 25.319 14.668 L 29.892 27.433 C 30.43 27.433 30.786 27.5 30.958 27.635 C 31.3 27.914 31.472 28.282 31.472 28.739 C 31.472 29.117 31.356 29.429 31.127 29.67 C 30.894 29.911 30.502 30.031 29.949 30.031 L 26.854 30.031 C 26.301 30.031 25.907 29.911 25.673 29.67 C 25.436 29.429 25.319 29.113 25.319 28.725 C 25.319 28.344 25.436 28.034 25.673 27.795 C 25.907 27.554 26.301 27.433 26.854 27.433 L 27.416 27.433 L 26.866 25.848 L 21.282 25.848 L 20.723 27.433 L 21.282 27.433 C 21.835 27.433 22.23 27.554 22.466 27.795 C 22.701 28.034 22.818 28.35 22.818 28.739 C 22.818 29.117 22.701 29.429 22.466 29.67 C 22.23 29.911 21.835 30.031 21.284 30.031 L 18.189 30.031 C 17.636 30.031 17.242 29.911 17.008 29.67 C 16.771 29.429 16.653 29.113 16.653 28.725 C 16.653 28.336 16.776 28.019 17.023 27.774 C 17.27 27.529 17.676 27.414 18.246 27.433 L 21.855 17.266 L 20.352 17.266 C 19.799 17.266 19.405 17.145 19.171 16.905 C 18.934 16.664 18.817 16.351 18.817 15.961 C 18.817 15.572 18.934 15.258 19.171 15.017 C 19.405 14.776 19.799 14.656 20.352 14.656 Z M 24.063 18.102 L 22.203 23.25 L 25.913 23.25 L 24.063 18.102 Z" fill="#000000"/>
      </g>
      <g id="left-anchor-and-cursor">
        <g id="left-anchor-text">
          <path d="M89.203,129.692 Q89.497,129.692 89.703,129.901 Q89.908,130.109 89.908,130.41 Q89.908,130.478 89.901,130.526 L89.88,130.683 L89.723,132.987 L90.051,132.987 Q90.557,132.987 90.772,133.182 Q90.988,133.377 90.988,133.691 Q90.988,133.999 90.776,134.194 Q90.564,134.388 90.058,134.388 L89.62,134.388 L89.518,135.92 L89.764,135.92 Q90.27,135.92 90.485,136.115 Q90.701,136.309 90.701,136.624 Q90.701,136.931 90.489,137.126 Q90.277,137.321 89.771,137.321 L89.415,137.321 L89.251,139.727 Q89.245,139.782 89.149,140.213 Q89.08,140.377 88.903,140.493 Q88.725,140.609 88.527,140.609 Q88.246,140.609 88.045,140.401 Q87.843,140.192 87.843,139.878 Q87.843,139.823 87.857,139.618 L88.021,137.321 L86.975,137.321 L86.811,139.72 Q86.784,140.083 86.756,140.151 Q86.681,140.356 86.5,140.483 Q86.319,140.609 86.1,140.609 Q85.799,140.609 85.598,140.404 Q85.396,140.199 85.396,139.878 Q85.396,139.802 85.41,139.625 L85.567,137.321 L85.225,137.321 Q84.719,137.321 84.504,137.126 Q84.288,136.931 84.288,136.617 Q84.288,136.309 84.504,136.115 Q84.719,135.92 85.225,135.92 L85.669,135.92 L85.772,134.388 L85.519,134.388 Q85.013,134.388 84.798,134.194 Q84.582,133.999 84.582,133.684 Q84.582,133.377 84.798,133.182 Q85.013,132.987 85.512,132.987 L85.874,132.987 L86.038,130.581 Q86.066,130.225 86.1,130.136 Q86.175,129.938 86.356,129.815 Q86.537,129.692 86.756,129.692 Q87.043,129.692 87.248,129.897 Q87.453,130.102 87.453,130.444 Q87.453,130.526 87.44,130.683 L87.283,132.987 L88.322,132.987 L88.486,130.581 Q88.513,130.089 88.708,129.89 Q88.903,129.692 89.203,129.692 z M88.219,134.388 L87.18,134.388 L87.077,135.92 L88.117,135.92 L88.219,134.388 z" fill="#000000"/>
          <path d="M28.76,132.905 Q30.066,132.905 30.787,133.469 Q31.508,134.033 31.508,135.011 L31.508,137.895 L31.747,137.895 Q32.253,137.895 32.469,138.09 Q32.684,138.285 32.684,138.599 Q32.684,138.907 32.469,139.102 Q32.253,139.297 31.747,139.297 L30.107,139.297 L30.107,138.969 Q29.58,139.249 28.945,139.389 Q28.309,139.529 27.789,139.529 Q26.662,139.529 25.957,138.931 Q25.253,138.333 25.253,137.608 Q25.253,136.726 26.152,135.971 Q27.051,135.216 28.637,135.216 Q29.273,135.216 30.107,135.352 L30.107,135.017 Q30.107,134.703 29.837,134.505 Q29.567,134.306 28.808,134.306 Q28.186,134.306 27.195,134.553 Q26.826,134.641 26.62,134.641 Q26.34,134.641 26.145,134.44 Q25.951,134.238 25.951,133.924 Q25.951,133.746 26.019,133.616 Q26.087,133.486 26.21,133.407 Q26.333,133.329 26.723,133.219 Q27.243,133.076 27.783,132.99 Q28.323,132.905 28.76,132.905 z M28.555,136.624 Q27.701,136.624 27.085,137.041 Q26.703,137.307 26.703,137.581 Q26.703,137.779 26.887,137.902 Q27.229,138.128 27.824,138.128 Q28.329,138.128 28.969,137.929 Q29.608,137.731 30.107,137.389 L30.107,136.788 Q29.266,136.624 28.555,136.624 z" fill="#000000"/>
          <path d="M62.304,132.905 Q63.159,132.905 63.873,133.206 Q64.587,133.507 64.936,133.855 Q65.428,134.361 65.749,135.106 Q65.968,135.626 65.968,136.309 L65.968,136.904 L60.219,136.904 Q60.438,137.451 60.995,137.786 Q61.552,138.121 62.502,138.121 Q63.282,138.121 64.574,137.786 Q65.107,137.649 65.312,137.649 Q65.592,137.649 65.784,137.847 Q65.975,138.046 65.975,138.346 Q65.975,138.62 65.77,138.811 Q65.496,139.064 64.437,139.293 Q63.377,139.522 62.4,139.522 Q60.718,139.522 59.71,138.572 Q58.702,137.622 58.702,136.234 Q58.702,134.758 59.792,133.831 Q60.882,132.905 62.304,132.905 z M62.338,134.306 Q61.627,134.306 61.108,134.604 Q60.588,134.901 60.26,135.503 L64.416,135.503 Q64.095,134.901 63.576,134.604 Q63.056,134.306 62.338,134.306 z" fill="#000000"/>
          <path d="M96.491,131.005 Q97.748,131.005 98.514,131.705 Q99.28,132.406 99.28,133.37 Q99.28,133.828 99.102,134.231 Q98.924,134.635 98.562,134.976 Q99.225,135.373 99.557,135.903 Q99.888,136.432 99.888,137.102 Q99.888,137.635 99.649,138.094 Q99.471,138.442 99.211,138.647 Q98.863,138.934 98.357,139.115 Q97.851,139.297 97.092,139.297 L92.977,139.297 Q92.471,139.297 92.256,139.102 Q92.04,138.907 92.04,138.593 Q92.04,138.285 92.259,138.09 Q92.478,137.895 92.977,137.895 L93.196,137.895 L93.196,132.413 L92.977,132.413 Q92.471,132.413 92.256,132.218 Q92.04,132.023 92.04,131.709 Q92.04,131.394 92.256,131.199 Q92.471,131.005 92.977,131.005 L96.491,131.005 z M96.45,135.851 L94.597,135.851 L94.597,137.895 L97.017,137.895 Q97.871,137.895 98.22,137.642 Q98.487,137.451 98.487,137.095 Q98.487,136.672 97.96,136.261 Q97.434,135.851 96.45,135.851 z M96.422,132.413 L94.597,132.413 L94.597,134.45 L96.135,134.45 Q96.962,134.45 97.509,134.033 Q97.878,133.753 97.878,133.336 Q97.878,132.967 97.53,132.69 Q97.181,132.413 96.422,132.413 z" fill="#000000"/>
          <path d="M72.12,130.43 Q72.702,130.43 73.464,130.536 Q74.226,130.642 74.441,130.834 Q74.657,131.025 74.657,131.326 Q74.657,131.647 74.465,131.849 Q74.274,132.051 73.994,132.051 Q73.864,132.051 73.604,132.003 Q72.736,131.832 72.066,131.832 Q71.369,131.832 71.105,132.04 Q70.842,132.249 70.842,132.556 L70.842,133.09 L73.002,133.09 Q73.508,133.09 73.724,133.284 Q73.939,133.479 73.939,133.794 Q73.939,134.101 73.724,134.296 Q73.508,134.491 73.002,134.491 L70.842,134.491 L70.842,137.895 L72.838,137.895 Q73.344,137.895 73.559,138.09 Q73.775,138.285 73.775,138.599 Q73.775,138.907 73.559,139.102 Q73.344,139.297 72.838,139.297 L68.607,139.297 Q68.101,139.297 67.886,139.102 Q67.67,138.907 67.67,138.593 Q67.67,138.285 67.886,138.09 Q68.101,137.895 68.607,137.895 L69.441,137.895 L69.441,134.491 L68.771,134.491 Q68.265,134.491 68.05,134.296 Q67.834,134.101 67.834,133.787 Q67.834,133.479 68.05,133.284 Q68.265,133.09 68.771,133.09 L69.441,133.09 L69.441,132.556 Q69.441,131.64 70.128,131.035 Q70.815,130.43 72.12,130.43 z" fill="#000000"/>
          <path d="M56.104,132.905 Q56.787,132.905 57.43,133.411 Q57.868,133.753 57.868,134.108 Q57.868,134.409 57.659,134.617 Q57.451,134.826 57.157,134.826 Q56.897,134.826 56.61,134.566 Q56.323,134.306 56.097,134.306 Q55.803,134.306 55.219,134.676 Q54.634,135.045 53.759,135.783 L53.759,137.895 L55.755,137.895 Q56.261,137.895 56.476,138.09 Q56.692,138.285 56.692,138.599 Q56.692,138.907 56.476,139.102 Q56.261,139.297 55.755,139.297 L51.524,139.297 Q51.018,139.297 50.803,139.102 Q50.587,138.907 50.587,138.593 Q50.587,138.285 50.803,138.09 Q51.018,137.895 51.524,137.895 L52.358,137.895 L52.358,134.491 L51.852,134.491 Q51.346,134.491 51.131,134.296 Q50.915,134.101 50.915,133.787 Q50.915,133.479 51.131,133.284 Q51.346,133.09 51.852,133.09 L53.759,133.09 L53.759,133.965 Q54.641,133.329 55.15,133.117 Q55.66,132.905 56.104,132.905 z" fill="#000000"/>
          <path d="M44.203,130.43 L44.203,133.418 Q44.64,133.158 45.088,133.032 Q45.536,132.905 45.994,132.905 Q46.718,132.905 47.286,133.151 Q47.853,133.397 48.225,133.927 Q48.598,134.457 48.598,135.263 L48.598,137.895 Q49.131,137.895 49.295,137.998 Q49.623,138.21 49.623,138.599 Q49.623,138.907 49.412,139.102 Q49.2,139.297 48.694,139.297 L47.094,139.297 Q46.595,139.297 46.38,139.102 Q46.164,138.907 46.164,138.593 Q46.164,138.21 46.493,137.998 Q46.663,137.888 47.19,137.895 L47.19,135.359 Q47.19,134.819 46.944,134.6 Q46.622,134.306 45.994,134.306 Q45.529,134.306 45.17,134.488 Q44.811,134.669 44.203,135.27 L44.203,137.895 Q44.743,137.895 44.9,137.998 Q45.235,138.21 45.235,138.599 Q45.235,138.907 45.019,139.102 Q44.804,139.297 44.298,139.297 L42.705,139.297 Q42.2,139.297 41.984,139.102 Q41.769,138.907 41.769,138.593 Q41.769,138.21 42.104,137.998 Q42.268,137.888 42.801,137.895 L42.801,131.832 L42.562,131.832 Q42.056,131.832 41.841,131.637 Q41.625,131.442 41.625,131.128 Q41.625,130.82 41.841,130.625 Q42.056,130.43 42.562,130.43 L44.203,130.43 z" fill="#000000"/>
          <path d="M101.542,131.346 Q101.72,131.346 102.089,131.545 L108.85,135.304 L102.089,139.064 Q101.72,139.269 101.542,139.269 Q101.255,139.269 101.043,139.057 Q100.831,138.845 100.831,138.545 Q100.831,138.312 100.944,138.162 Q101.057,138.011 101.399,137.82 L105.938,135.304 L101.399,132.789 Q101.057,132.597 100.944,132.447 Q100.831,132.297 100.831,132.064 Q100.831,131.77 101.043,131.558 Q101.255,131.346 101.542,131.346 z" fill="#000000"/>
          <path d="M23.373,131.346 Q23.661,131.346 23.872,131.558 Q24.084,131.77 24.084,132.064 Q24.084,132.297 23.972,132.447 Q23.859,132.597 23.517,132.789 L18.978,135.304 L23.517,137.82 Q23.859,138.011 23.972,138.162 Q24.084,138.312 24.084,138.545 Q24.084,138.839 23.872,139.054 Q23.661,139.269 23.38,139.269 Q23.196,139.269 22.827,139.064 L16.066,135.304 L22.827,131.545 Q23.196,131.346 23.373,131.346 z" fill="#000000"/>
          <path d="M82.258,135.926 Q82.764,135.927 82.979,136.121 Q83.195,136.316 83.195,136.631 Q83.195,136.945 82.979,137.136 Q82.764,137.328 82.258,137.328 L76.27,137.328 Q75.764,137.328 75.549,137.136 Q75.333,136.945 75.333,136.631 Q75.333,136.316 75.549,136.121 Q75.764,135.927 76.27,135.927 L82.258,135.926 z" fill="#000000"/>
          <path d="M82.258,133.288 Q82.764,133.288 82.979,133.483 Q83.195,133.677 83.195,133.992 Q83.195,134.3 82.979,134.494 Q82.764,134.689 82.258,134.689 L76.27,134.689 Q75.764,134.689 75.549,134.494 Q75.333,134.3 75.333,133.985 Q75.333,133.677 75.549,133.483 Q75.764,133.288 76.27,133.288 L82.258,133.288 z" fill="#000000"/>
        </g>
      </g>
    </g>
    <g id="right-window">
      <g>
        <path d="M132.532,58.719 L235.817,58.719 C244.167,58.719 250.936,63.896 250.936,70.283 L250.936,239.097 C250.936,245.484 244.167,250.661 235.817,250.661 L132.532,250.661 C124.181,250.661 117.412,245.484 117.412,239.097 L117.412,70.283 C117.412,63.896 124.181,58.719 132.532,58.719 z" fill="#868080"/>
        <path d="M132.532,58.719 L235.817,58.719 C244.167,58.719 250.936,63.896 250.936,70.283 L250.936,239.097 C250.936,245.484 244.167,250.661 235.817,250.661 L132.532,250.661 C124.181,250.661 117.412,245.484 117.412,239.097 L117.412,70.283 C117.412,63.896 124.181,58.719 132.532,58.719 z" fill-opacity="0" stroke="#000000" stroke-width="4"/>
      </g>
      <g>
        <path d="M235.817,58.719 C244.167,58.719 250.936,63.896 250.936,70.283 L250.936,93.332 L117.412,93.332 L117.412,70.283 C117.412,63.896 124.181,58.719 132.532,58.719 L235.817,58.719 z" fill="#FFFFFF"/>
        <path d="M235.817,58.719 C244.167,58.719 250.936,63.896 250.936,70.283 L250.936,93.332 L117.412,93.332 L117.412,70.283 C117.412,63.896 124.181,58.719 132.532,58.719 L235.817,58.719 z" fill-opacity="0" stroke="#000000" stroke-width="4"/>
        <path d="M 135.049 69.913 C 136.478 69.913 137.626 70.305 138.498 71.093 C 139.367 71.881 139.802 72.817 139.802 73.9 C 139.802 74.413 139.7 74.898 139.499 75.35 C 139.296 75.807 138.991 76.223 138.579 76.608 C 139.332 77.054 139.898 77.572 140.276 78.169 C 140.65 78.763 140.839 79.438 140.839 80.192 C 140.839 80.789 140.703 81.348 140.432 81.863 C 140.229 82.254 139.98 82.564 139.686 82.794 C 139.289 83.117 138.805 83.381 138.23 83.584 C 137.653 83.789 136.937 83.891 136.074 83.891 L 129.061 83.891 C 128.483 83.891 128.075 83.782 127.833 83.562 C 127.586 83.344 127.463 83.057 127.463 82.704 C 127.463 82.358 127.587 82.075 127.837 81.856 C 128.086 81.636 128.491 81.529 129.061 81.529 L 129.435 81.529 L 129.435 72.287 L 129.061 72.287 C 128.483 72.287 128.075 72.178 127.833 71.959 C 127.586 71.738 127.463 71.454 127.463 71.1 C 127.463 70.747 127.586 70.458 127.833 70.242 C 128.075 70.024 128.483 69.913 129.061 69.913 L 135.049 69.913 Z M 134.979 78.084 L 131.821 78.084 L 131.821 81.529 L 135.946 81.529 C 136.917 81.529 137.601 81.384 137.996 81.102 C 138.3 80.886 138.45 80.579 138.45 80.18 C 138.45 79.702 138.151 79.235 137.553 78.774 C 136.956 78.312 136.098 78.084 134.979 78.084 Z M 134.931 72.287 L 131.821 72.287 L 131.821 75.72 L 134.444 75.72 C 135.382 75.72 136.161 75.486 136.784 75.019 C 137.203 74.703 137.413 74.311 137.413 73.842 C 137.413 73.428 137.215 73.064 136.819 72.754 C 136.424 72.444 135.794 72.287 134.931 72.287 Z" fill="#000000"/>
      </g>
      <g id="right-anchor-and-cursor">
        <g id="right-anchor-text">
          <path d="M205.656,171.95 Q205.95,171.95 206.155,172.159 Q206.36,172.367 206.36,172.668 Q206.36,172.737 206.353,172.784 L206.332,172.942 L206.175,175.245 L206.503,175.245 Q207.009,175.245 207.225,175.44 Q207.44,175.635 207.44,175.949 Q207.44,176.257 207.228,176.452 Q207.016,176.647 206.51,176.647 L206.073,176.647 L205.97,178.178 L206.216,178.178 Q206.722,178.178 206.938,178.373 Q207.153,178.568 207.153,178.882 Q207.153,179.19 206.941,179.384 Q206.729,179.579 206.223,179.579 L205.868,179.579 L205.704,181.985 Q205.697,182.04 205.601,182.471 Q205.533,182.635 205.355,182.751 Q205.177,182.867 204.979,182.867 Q204.699,182.867 204.497,182.659 Q204.295,182.45 204.295,182.136 Q204.295,182.081 204.309,181.876 L204.473,179.579 L203.427,179.579 L203.263,181.979 Q203.236,182.341 203.209,182.409 Q203.133,182.614 202.952,182.741 Q202.771,182.867 202.552,182.867 Q202.251,182.867 202.05,182.662 Q201.848,182.457 201.848,182.136 Q201.848,182.061 201.862,181.883 L202.019,179.579 L201.677,179.579 Q201.171,179.579 200.956,179.384 Q200.741,179.19 200.741,178.875 Q200.741,178.568 200.956,178.373 Q201.171,178.178 201.677,178.178 L202.122,178.178 L202.224,176.647 L201.971,176.647 Q201.465,176.647 201.25,176.452 Q201.035,176.257 201.035,175.943 Q201.035,175.635 201.25,175.44 Q201.465,175.245 201.964,175.245 L202.327,175.245 L202.491,172.839 Q202.518,172.484 202.552,172.395 Q202.627,172.196 202.809,172.073 Q202.99,171.95 203.209,171.95 Q203.496,171.95 203.701,172.155 Q203.906,172.361 203.906,172.702 Q203.906,172.784 203.892,172.942 L203.735,175.245 L204.774,175.245 L204.938,172.839 Q204.965,172.347 205.16,172.149 Q205.355,171.95 205.656,171.95 z M204.671,176.647 L203.632,176.647 L203.53,178.178 L204.569,178.178 L204.671,176.647 z" fill="#000000"/>
          <path d="M145.212,175.163 Q146.518,175.163 147.239,175.727 Q147.96,176.291 147.96,177.269 L147.96,180.153 L148.2,180.153 Q148.706,180.154 148.921,180.348 Q149.136,180.543 149.136,180.858 Q149.136,181.165 148.921,181.36 Q148.706,181.555 148.2,181.555 L146.559,181.555 L146.559,181.227 Q146.033,181.507 145.397,181.647 Q144.761,181.787 144.242,181.787 Q143.114,181.787 142.41,181.189 Q141.706,180.591 141.706,179.866 Q141.706,178.985 142.605,178.229 Q143.503,177.474 145.089,177.474 Q145.725,177.474 146.559,177.611 L146.559,177.276 Q146.559,176.961 146.289,176.763 Q146.019,176.565 145.26,176.565 Q144.638,176.565 143.647,176.811 Q143.278,176.9 143.073,176.9 Q142.792,176.9 142.598,176.698 Q142.403,176.496 142.403,176.182 Q142.403,176.004 142.471,175.874 Q142.54,175.744 142.663,175.666 Q142.786,175.587 143.175,175.478 Q143.695,175.334 144.235,175.249 Q144.775,175.163 145.212,175.163 z M145.007,178.882 Q144.153,178.882 143.538,179.299 Q143.155,179.566 143.155,179.839 Q143.155,180.037 143.339,180.16 Q143.681,180.386 144.276,180.386 Q144.782,180.386 145.421,180.188 Q146.06,179.989 146.559,179.648 L146.559,179.046 Q145.718,178.882 145.007,178.882 z" fill="#000000"/>
          <path d="M178.756,175.163 Q179.611,175.163 180.325,175.464 Q181.04,175.765 181.388,176.113 Q181.88,176.619 182.202,177.364 Q182.42,177.884 182.42,178.568 L182.42,179.162 L176.671,179.162 Q176.89,179.709 177.447,180.044 Q178.004,180.379 178.955,180.379 Q179.734,180.379 181.026,180.044 Q181.559,179.907 181.764,179.907 Q182.044,179.907 182.236,180.106 Q182.427,180.304 182.427,180.605 Q182.427,180.878 182.222,181.07 Q181.949,181.322 180.889,181.551 Q179.83,181.78 178.852,181.78 Q177.17,181.78 176.162,180.83 Q175.154,179.88 175.154,178.492 Q175.154,177.016 176.244,176.09 Q177.334,175.163 178.756,175.163 z M178.79,176.565 Q178.08,176.565 177.56,176.862 Q177.041,177.159 176.712,177.761 L180.869,177.761 Q180.547,177.159 180.028,176.862 Q179.508,176.565 178.791,176.565 z" fill="#000000"/>
          <path d="M188.573,172.689 Q189.154,172.689 189.916,172.795 Q190.678,172.901 190.894,173.092 Q191.109,173.283 191.109,173.584 Q191.109,173.905 190.917,174.107 Q190.726,174.309 190.446,174.309 Q190.316,174.309 190.056,174.261 Q189.188,174.09 188.518,174.09 Q187.821,174.09 187.558,174.299 Q187.294,174.507 187.294,174.815 L187.294,175.348 L189.455,175.348 Q189.96,175.348 190.176,175.543 Q190.391,175.738 190.391,176.052 Q190.391,176.36 190.176,176.554 Q189.96,176.749 189.455,176.749 L187.294,176.749 L187.294,180.153 L189.29,180.153 Q189.796,180.154 190.012,180.348 Q190.227,180.543 190.227,180.858 Q190.227,181.165 190.012,181.36 Q189.796,181.555 189.291,181.555 L185.059,181.555 Q184.553,181.555 184.338,181.36 Q184.123,181.165 184.123,180.851 Q184.123,180.543 184.338,180.348 Q184.553,180.154 185.059,180.154 L185.893,180.153 L185.893,176.749 L185.223,176.749 Q184.717,176.749 184.502,176.554 Q184.287,176.36 184.287,176.045 Q184.287,175.738 184.502,175.543 Q184.717,175.348 185.223,175.348 L185.893,175.348 L185.893,174.815 Q185.893,173.899 186.58,173.294 Q187.267,172.689 188.573,172.689 z" fill="#000000"/>
          <path d="M172.556,175.163 Q173.24,175.163 173.882,175.669 Q174.32,176.011 174.32,176.366 Q174.32,176.667 174.111,176.876 Q173.903,177.084 173.609,177.084 Q173.349,177.084 173.062,176.824 Q172.775,176.565 172.549,176.565 Q172.255,176.565 171.671,176.934 Q171.086,177.303 170.211,178.041 L170.211,180.153 L172.207,180.153 Q172.713,180.154 172.929,180.348 Q173.144,180.543 173.144,180.858 Q173.144,181.165 172.929,181.36 Q172.713,181.555 172.208,181.555 L167.976,181.555 Q167.47,181.555 167.255,181.36 Q167.04,181.165 167.04,180.851 Q167.04,180.543 167.255,180.348 Q167.47,180.154 167.976,180.154 L168.81,180.153 L168.81,176.749 L168.304,176.749 Q167.798,176.749 167.583,176.554 Q167.368,176.36 167.368,176.045 Q167.368,175.738 167.583,175.543 Q167.798,175.348 168.304,175.348 L170.211,175.348 L170.211,176.223 Q171.093,175.587 171.603,175.375 Q172.112,175.163 172.556,175.163 z" fill="#000000"/>
          <path d="M160.655,172.689 L160.655,175.676 Q161.092,175.416 161.54,175.29 Q161.988,175.163 162.446,175.163 Q163.17,175.163 163.738,175.409 Q164.305,175.655 164.678,176.185 Q165.05,176.715 165.05,177.522 L165.05,180.153 Q165.584,180.154 165.748,180.256 Q166.076,180.468 166.076,180.858 Q166.076,181.165 165.864,181.36 Q165.652,181.555 165.146,181.555 L163.546,181.555 Q163.047,181.555 162.832,181.36 Q162.617,181.165 162.617,180.851 Q162.617,180.468 162.945,180.256 Q163.116,180.147 163.642,180.154 L163.642,177.617 Q163.642,177.077 163.396,176.859 Q163.075,176.565 162.446,176.565 Q161.981,176.565 161.622,176.746 Q161.263,176.927 160.655,177.529 L160.655,180.153 Q161.195,180.154 161.352,180.256 Q161.687,180.468 161.687,180.858 Q161.687,181.165 161.472,181.36 Q161.256,181.555 160.751,181.555 L159.158,181.555 Q158.652,181.555 158.437,181.36 Q158.221,181.165 158.221,180.851 Q158.221,180.468 158.556,180.256 Q158.72,180.147 159.253,180.154 L159.253,174.09 L159.014,174.09 Q158.508,174.09 158.293,173.895 Q158.078,173.7 158.078,173.386 Q158.078,173.078 158.293,172.884 Q158.508,172.689 159.014,172.689 L160.655,172.689 z" fill="#000000"/>
          <path d="M217.995,173.605 Q218.172,173.605 218.542,173.803 L225.302,177.563 L218.541,181.322 Q218.172,181.528 217.995,181.528 Q217.708,181.528 217.496,181.316 Q217.284,181.104 217.284,180.803 Q217.284,180.571 217.396,180.42 Q217.509,180.27 217.851,180.078 L222.39,177.563 L217.851,175.047 Q217.509,174.856 217.396,174.705 Q217.284,174.555 217.284,174.322 Q217.284,174.029 217.496,173.817 Q217.708,173.605 217.995,173.605 z" fill="#000000"/>
          <path d="M139.826,173.605 Q140.113,173.605 140.325,173.817 Q140.537,174.029 140.537,174.322 Q140.537,174.555 140.424,174.705 Q140.311,174.856 139.969,175.047 L135.43,177.563 L139.969,180.078 Q140.311,180.27 140.424,180.42 Q140.537,180.571 140.537,180.803 Q140.537,181.097 140.325,181.312 Q140.113,181.528 139.833,181.528 Q139.648,181.528 139.279,181.322 L132.518,177.563 L139.279,173.803 Q139.648,173.605 139.826,173.605 z" fill="#000000"/>
          <path d="M198.71,178.185 Q199.216,178.185 199.432,178.38 Q199.647,178.574 199.647,178.889 Q199.647,179.203 199.432,179.395 Q199.216,179.586 198.71,179.586 L192.722,179.586 Q192.216,179.586 192.001,179.395 Q191.786,179.203 191.786,178.889 Q191.786,178.574 192.001,178.38 Q192.216,178.185 192.722,178.185 L198.71,178.185 z" fill="#000000"/>
          <path d="M198.71,175.546 Q199.216,175.546 199.432,175.741 Q199.647,175.936 199.647,176.25 Q199.647,176.558 199.432,176.753 Q199.216,176.947 198.71,176.947 L192.722,176.947 Q192.216,176.947 192.001,176.753 Q191.786,176.558 191.786,176.243 Q191.786,175.936 192.001,175.741 Q192.216,175.546 192.722,175.546 L198.71,175.546 z" fill="#000000"/>
          <path d="M209.802,173.949 L212.831,173.956 L215.619,180.84 Q216.112,180.84 216.269,180.949 Q216.583,181.175 216.583,181.544 Q216.583,181.851 216.372,182.046 Q216.16,182.241 215.654,182.241 L213.767,182.241 Q213.261,182.241 213.046,182.046 Q212.831,181.851 212.831,181.537 Q212.831,181.229 213.046,181.035 Q213.261,180.84 213.767,180.84 L214.109,180.84 L213.774,179.985 L210.369,179.985 L210.028,180.84 L210.369,180.84 Q210.875,180.84 211.091,181.035 Q211.306,181.229 211.306,181.544 Q211.306,181.851 211.091,182.046 Q210.875,182.241 210.37,182.241 L208.483,182.241 Q207.977,182.241 207.762,182.046 Q207.546,181.851 207.546,181.537 Q207.546,181.223 207.772,181.024 Q207.997,180.826 208.517,180.84 L210.718,175.357 L209.802,175.357 Q209.296,175.357 209.081,175.162 Q208.866,174.968 208.866,174.653 Q208.866,174.339 209.081,174.144 Q209.296,173.949 209.802,173.949 z M212.065,175.808 L210.93,178.584 L213.193,178.584 L212.065,175.808 z" fill="#000000"/>
        </g>
      </g>
    </g>
    <g id="cursor" class='cursor'>
      <path d="M 72 136 L 91.946 146.651 L 85.187 149.44 L 92 157.253 L 88.819 160.068 L 82.044 151.862 L 77.542 157.462 L 72 136 Z" fill="#FFFFFF" style="stroke: rgb(0, 0, 0); stroke-width: 2px;"/>
    </g>
  </g>
</svg>
