<?xml version="1.0" encoding="UTF-8"?>
<!DOCTYPE svg PUBLIC "-//W3C//DTD SVG 1.1//EN" "http://www.w3.org/Graphics/SVG/1.1/DTD/svg11.dtd">
<svg version="1.1" xmlns="http://www.w3.org/2000/svg" xmlns:xlink="http://www.w3.org/1999/xlink" x="0" y="0" width="256" height="256" viewBox="0, 0, 256, 256">
  <g id="Layer_1">
    <path d="M61.483,0.148 Q68.379,0.149 72.759,4.899 Q77.14,9.649 77.14,16.616 Q77.14,23.107 73.262,27.699 Q69.384,32.29 63.208,32.924 Q57.032,33.557 55.453,35.774 Q52.867,39.098 52.867,45.59 L52.867,97.203 Q52.867,108.13 50.928,114.068 Q48.99,120.005 43.963,126.497 Q49.133,132.988 51,139.084 Q52.867,145.179 52.867,158.796 L52.867,210.409 Q52.867,216.903 55.094,219.674 Q57.32,222.444 63.352,222.999 Q69.384,223.553 73.262,228.144 Q77.14,232.736 77.14,239.386 Q77.14,246.352 72.759,251.102 Q68.379,255.852 61.628,255.852 Q52.006,255.852 43.101,250.231 Q34.196,244.611 27.59,231.944 Q23.425,223.711 23.425,212.786 L23.424,155.628 Q23.425,148.821 21.414,146.288 Q19.403,143.755 12.797,142.884 Q6.19,142.013 2.671,137.738 Q-0.847,133.463 -0.847,126.497 Q-0.847,119.372 2.671,115.097 Q6.19,110.822 12.869,109.951 Q19.547,109.08 20.983,107.022 Q23.425,103.855 23.425,97.206 L23.424,43.057 Q23.425,25.64 34.915,12.895 Q46.404,0.149 61.485,0.149 z" fill="#6F6D6D"/>
    <path d="M193.45,0 Q203.086,0.001 212.001,5.629 Q220.916,11.256 227.53,23.937 Q231.7,32.18 231.7,42.958 L231.699,97.168 Q231.7,103.986 233.713,106.601 Q235.726,109.217 242.34,110.009 Q248.954,110.802 252.477,115.082 Q256,119.362 256,126.495 Q256,133.469 252.477,137.749 Q248.954,142.029 242.268,142.901 Q235.582,143.773 234.144,145.833 Q231.7,149.004 231.7,155.661 L231.699,212.884 Q231.7,230.479 220.197,243.24 Q208.694,256 193.596,256 Q186.694,256 182.308,251.245 Q177.923,246.489 177.923,239.515 Q177.923,233.016 181.805,228.419 Q185.687,223.822 191.87,223.188 Q198.053,222.554 199.635,220.335 Q202.223,217.006 202.223,210.507 L202.221,158.83 Q202.223,145.199 204.02,139.176 Q205.818,133.152 211.138,126.495 Q206.105,119.996 204.164,113.893 Q202.223,107.79 202.223,97.17 L202.221,45.493 Q202.223,38.996 199.994,36.222 Q197.766,33.448 191.727,32.814 Q185.687,32.18 181.805,27.583 Q177.923,22.986 177.923,16.487 Q177.923,9.512 182.308,4.757 Q186.694,0.001 193.452,0.001 z" fill="#6F6D6D"/>
    <g id="question-bang">
      <g id="question">
        <path d="M99.834,163.947 Q112.699,163.947 118.223,168.892 Q123.748,173.836 123.748,181.713 Q123.748,189.59 118.223,194.535 Q112.699,199.479 99.836,199.479 Q86.974,199.479 81.449,194.535 Q75.925,189.59 75.925,181.713 Q75.925,173.836 81.367,168.892 Q86.809,163.947 99.836,163.947 z" fill="#000000"/>
        <path d="M104.312,64.741 Q122.178,64.741 132.952,75.223 Q143.726,85.705 143.726,101.522 Q143.726,112.753 137.234,120.615 Q130.742,128.476 112.141,136.806 Q111.588,142.234 109.056,144.714 Q106.523,147.194 102.656,147.194 Q98.512,147.194 95.888,144.246 Q93.263,141.298 93.263,134.372 L93.262,123.609 Q115.64,114.906 120.244,110.226 Q124.848,105.547 124.848,100.68 Q124.848,93.848 119.461,88.887 Q114.074,83.927 104.221,83.927 Q93.816,83.927 84.147,88.794 L84.147,91.601 Q84.147,98.434 81.522,101.382 Q78.898,104.33 74.662,104.33 Q70.518,104.33 67.894,101.429 Q65.269,98.527 65.269,91.602 L65.269,76.159 Q79.727,69.233 87.738,66.987 Q95.749,64.741 104.313,64.741 z" fill="#000000"/>
      </g>
      <g id="bang">
        <path d="M164.833,167.223 Q174.877,167.225 180.41,172.331 Q185.942,177.438 185.942,184.928 Q185.942,192.418 180.325,197.61 Q174.707,202.802 164.834,202.802 Q154.961,202.802 149.343,197.61 Q143.726,192.418 143.726,184.928 Q143.726,177.608 149.258,172.417 Q154.79,167.225 164.834,167.225 z" fill="#000000"/>
        <path d="M168.43,61.417 Q174.785,61.418 179.159,65.838 Q183.533,70.259 183.533,76.981 Q183.533,78.362 183.072,83.058 L177.823,139.966 Q177.455,144.387 174.877,146.827 Q172.298,149.267 168.431,149.267 Q164.563,149.267 161.985,146.827 Q159.406,144.387 159.038,139.967 L153.697,83.058 Q153.329,78.73 153.329,77.349 Q153.329,70.166 157.657,65.792 Q161.985,61.418 168.431,61.418 z" fill="#000000"/>
      </g>
    </g>
  </g>
</svg>
