<?xml version="1.0" encoding="UTF-8"?>
<!DOCTYPE svg PUBLIC "-//W3C//DTD SVG 1.1//EN" "http://www.w3.org/Graphics/SVG/1.1/DTD/svg11.dtd">
<svg version="1.1" xmlns="http://www.w3.org/2000/svg" xmlns:xlink="http://www.w3.org/1999/xlink" x="0" y="0" width="256" height="256" viewBox="0, 0, 256, 256">
  <g id="Layer_1">
    <g id="left-window">
      <g>
        <path d="M22.46,5.487 L125.745,5.487 C134.095,5.487 140.865,10.665 140.865,17.051 L140.865,185.866 C140.865,192.252 134.095,197.43 125.745,197.43 L22.46,197.43 C14.11,197.43 7.34,192.252 7.34,185.866 L7.34,17.051 C7.34,10.665 14.11,5.487 22.46,5.487 z" fill="#868080"/>
        <path d="M22.46,5.487 L125.745,5.487 C134.095,5.487 140.865,10.665 140.865,17.051 L140.865,185.866 C140.865,192.252 134.095,197.43 125.745,197.43 L22.46,197.43 C14.11,197.43 7.34,192.252 7.34,185.866 L7.34,17.051 C7.34,10.665 14.11,5.487 22.46,5.487 z" fill-opacity="0" stroke="#000000" stroke-width="4"/>
      </g>
      <g>
        <path d="M125.745,5.487 C134.096,5.487 140.865,10.665 140.865,17.052 L140.865,40.1 L7.34,40.1 L7.34,17.051 C7.34,10.665 14.11,5.487 22.46,5.487 L125.745,5.487 z" fill="#FFFFFF"/>
        <path d="M125.745,5.487 C134.096,5.487 140.865,10.665 140.865,17.052 L140.865,40.1 L7.34,40.1 L7.34,17.051 C7.34,10.665 14.11,5.487 22.46,5.487 L125.745,5.487 z" fill-opacity="0" stroke="#000000" stroke-width="4"/>
      </g>
      <text transform="matrix(1, 0, 0, 1, 21.355, 23.18)" id="title">
        <tspan x="-4.801" y="3.5" font-family="CourierNewPS-BoldMT" font-size="16" fill="#000000">A</tspan>
      </text>
      <text transform="matrix(1, 0, 0, 1, 62.451, 148.297)" id="anchor-text">
        <tspan x="-46.208" y="-9" font-family="CourierNewPS-BoldMT" font-size="14" fill="#000000">&lt;a href=#B&gt;</tspan>
      </text>
    </g>
    <g id="right-window">
      <g>
        <path d="M132.532,58.719 L235.817,58.719 C244.167,58.719 250.936,63.896 250.936,70.283 L250.936,239.097 C250.936,245.484 244.167,250.661 235.817,250.661 L132.532,250.661 C124.181,250.661 117.412,245.484 117.412,239.097 L117.412,70.283 C117.412,63.896 124.181,58.719 132.532,58.719 z" fill="#868080"/>
        <path d="M132.532,58.719 L235.817,58.719 C244.167,58.719 250.936,63.896 250.936,70.283 L250.936,239.097 C250.936,245.484 244.167,250.661 235.817,250.661 L132.532,250.661 C124.181,250.661 117.412,245.484 117.412,239.097 L117.412,70.283 C117.412,63.896 124.181,58.719 132.532,58.719 z" fill-opacity="0" stroke="#000000" stroke-width="4"/>
      </g>
      <g>
        <path d="M235.817,58.719 C244.167,58.719 250.936,63.896 250.936,70.283 L250.936,93.332 L117.412,93.332 L117.412,70.283 C117.412,63.896 124.181,58.719 132.532,58.719 L235.817,58.719 z" fill="#FFFFFF"/>
        <path d="M235.817,58.719 C244.167,58.719 250.936,63.896 250.936,70.283 L250.936,93.332 L117.412,93.332 L117.412,70.283 C117.412,63.896 124.181,58.719 132.532,58.719 L235.817,58.719 z" fill-opacity="0" stroke="#000000" stroke-width="4"/>
      </g>
      <text transform="matrix(1, 0, 0, 1, 132.064, 76.247)" id="title">
        <tspan x="-4.801" y="3.5" font-family="CourierNewPS-BoldMT" font-size="16" fill="#000000">B</tspan>
      </text>
    </g>
    <g id="cursor">
      <path d="M71.55,142.301 L111.661,163.72 L98.068,169.33 L111.77,185.041 L105.373,190.701 L91.748,174.202 L82.697,185.463 L71.55,142.301 z" fill="#FFFFFF"/>
      <path d="M71.55,142.301 L111.661,163.72 L98.068,169.33 L111.77,185.041 L105.373,190.701 L91.748,174.202 L82.697,185.463 L71.55,142.301 z" fill-opacity="0" stroke="#000000" stroke-width="3"/>
    </g>
  </g>
</svg>
